<svg id="svg" fill="#ffffff" stroke="#ffffff" width="101" height="101" version="1.1" viewBox="144 144 512 512" xmlns="http://www.w3.org/2000/svg">
    <g id="IconSvg_bgCarrier" stroke-width="0"></g>
    <g id="IconSvg_tracerCarrier" stroke-linecap="round" stroke-linejoin="round" stroke="#CCCCCC" stroke-width="0">
      <path xmlns="http://www.w3.org/2000/svg" d="m597.74 416.69-56.047 57.152c-4.4062 4.4609-10.418 6.9688-16.688 6.9688-6.2734 0-12.281-2.5078-16.691-6.9688-4.4219-4.4297-6.9062-10.434-6.9062-16.691 0-6.2578 2.4844-12.258 6.9062-16.688l16.848-17.004h-160.59c-8.4375 0-16.234-4.5-20.453-11.809-4.2188-7.3047-4.2188-16.309 0-23.617 4.2188-7.3047 12.016-11.805 20.453-11.805h159.64l-16.848-17.004c-5.9023-6.1328-8.0898-14.949-5.7344-23.129s8.8984-14.48 17.16-16.531c8.2656-2.0508 16.992 0.46484 22.898 6.5977l56.836 57.152v-0.003906c4.3594 4.5117 6.7305 10.582 6.582 16.855-0.14844 6.2695-2.8008 12.223-7.3711 16.523zm-150.51 46.289c-6.2617 0-12.27 2.4844-16.699 6.9141s-6.918 10.438-6.918 16.699v78.719l-181.05 0.003906v-330.62h180.74v78.719c0 8.4375 4.5 16.234 11.809 20.453 7.3047 4.2188 16.309 4.2188 23.613 0 7.3086-4.2188 11.809-12.016 11.809-20.453v-102.34c0-6.2109-2.4453-12.168-6.8047-16.59-4.3594-4.418-10.289-6.9453-16.496-7.0273h-228.29c-6.2617 0-12.27 2.4883-16.699 6.918-4.4297 4.4297-6.918 10.434-6.918 16.699v377.86c0 6.2656 2.4883 12.273 6.918 16.699 4.4297 4.4297 10.438 6.918 16.699 6.918h228.29c6.2617 0 12.27-2.4883 16.699-6.918 4.4297-4.4258 6.918-10.434 6.918-16.699v-102.49c-0.042968-6.2344-2.5508-12.203-6.9727-16.598-4.4258-4.3945-10.406-6.8633-16.645-6.8594z"></path>

      </g>
     <g id="IconSvg_iconCarrier">
      <path xmlns="http://www.w3.org/2000/svg" d="m597.74 416.69-56.047 57.152c-4.4062 4.4609-10.418 6.9688-16.688 6.9688-6.2734 0-12.281-2.5078-16.691-6.9688-4.4219-4.4297-6.9062-10.434-6.9062-16.691 0-6.2578 2.4844-12.258 6.9062-16.688l16.848-17.004h-160.59c-8.4375 0-16.234-4.5-20.453-11.809-4.2188-7.3047-4.2188-16.309 0-23.617 4.2188-7.3047 12.016-11.805 20.453-11.805h159.64l-16.848-17.004c-5.9023-6.1328-8.0898-14.949-5.7344-23.129s8.8984-14.48 17.16-16.531c8.2656-2.0508 16.992 0.46484 22.898 6.5977l56.836 57.152v-0.003906c4.3594 4.5117 6.7305 10.582 6.582 16.855-0.14844 6.2695-2.8008 12.223-7.3711 16.523zm-150.51 46.289c-6.2617 0-12.27 2.4844-16.699 6.9141s-6.918 10.438-6.918 16.699v78.719l-181.05 0.003906v-330.62h180.74v78.719c0 8.4375 4.5 16.234 11.809 20.453 7.3047 4.2188 16.309 4.2188 23.613 0 7.3086-4.2188 11.809-12.016 11.809-20.453v-102.34c0-6.2109-2.4453-12.168-6.8047-16.59-4.3594-4.418-10.289-6.9453-16.496-7.0273h-228.29c-6.2617 0-12.27 2.4883-16.699 6.918-4.4297 4.4297-6.918 10.434-6.918 16.699v377.86c0 6.2656 2.4883 12.273 6.918 16.699 4.4297 4.4297 10.438 6.918 16.699 6.918h228.29c6.2617 0 12.27-2.4883 16.699-6.918 4.4297-4.4258 6.918-10.434 6.918-16.699v-102.49c-0.042968-6.2344-2.5508-12.203-6.9727-16.598-4.4258-4.3945-10.406-6.8633-16.645-6.8594z"></path>

      </g>
      </svg>