<svg id="svg" fill="#ffffff" stroke="#ffffff" width="101" height="101" version="1.1" viewBox="144 144 512 512" xmlns="http://www.w3.org/2000/svg" stroke-width="19">
    <g id="IconSvg_bgCarrier" stroke-width="0"></g>
    <g id="IconSvg_tracerCarrier" stroke-linecap="round" stroke-linejoin="round" stroke="#CCCCCC" stroke-width="0">
      <path xmlns="http://www.w3.org/2000/svg" d="m527.52 239.41 62.977-6.2969-1.5742-15.742-94.465 9.4414 15.746 92.891 15.742-2.3633-11.809-68.488c47.23 35.426 75.57 91.316 75.57 151.14 0 103.91-85.02 188.93-188.93 188.93-104.7 0-189.71-85.016-189.71-188.93s85.02-188.93 188.93-188.93v-15.742c-112.57-0.78906-204.68 91.312-204.68 204.67 0 113.36 92.102 204.67 204.67 204.67 113.36 0 204.67-92.102 204.67-204.67 0.78906-62.977-28.336-122.02-77.145-160.59z"></path>

      </g>
     <g id="IconSvg_iconCarrier">
      <path xmlns="http://www.w3.org/2000/svg" d="m527.52 239.41 62.977-6.2969-1.5742-15.742-94.465 9.4414 15.746 92.891 15.742-2.3633-11.809-68.488c47.23 35.426 75.57 91.316 75.57 151.14 0 103.91-85.02 188.93-188.93 188.93-104.7 0-189.71-85.016-189.71-188.93s85.02-188.93 188.93-188.93v-15.742c-112.57-0.78906-204.68 91.312-204.68 204.67 0 113.36 92.102 204.67 204.67 204.67 113.36 0 204.67-92.102 204.67-204.67 0.78906-62.977-28.336-122.02-77.145-160.59z"></path>

      </g>
      </svg>