<svg id="svg" fill="#ffffff" stroke="#ffffff" width="101" height="101" version="1.1" viewBox="144 144 512 512" xmlns="http://www.w3.org/2000/svg">
    <g id="IconSvg_bgCarrier" stroke-width="0"></g>
    <g id="IconSvg_tracerCarrier" stroke-linecap="round" stroke-linejoin="round" stroke="#CCCCCC" stroke-width="0">
      <g xmlns="http://www.w3.org/2000/svg">
  <path d="m507.91 386.85-160.08-105.51c-4.8359-3.1797-11.016-3.4688-16.129-0.71484-5.0977 2.7461-8.2812 8.0664-8.2812 13.859l0.003907 211.02c0 5.793 3.1836 11.117 8.2812 13.859 2.3359 1.2617 4.9062 1.8828 7.4648 1.8828 3.0273 0 6.043-0.87109 8.6641-2.5977l160.08-105.51c4.418-2.9141 7.0781-7.8516 7.0781-13.145s-2.6602-10.234-7.082-13.148zm-153 89.422v-152.55l115.73 76.277z"></path>
  <path d="m486.59 187.45h-173.18c-69.449 0-125.95 56.504-125.95 125.95v173.18c0 69.449 56.504 125.95 125.95 125.95h173.18c69.449 0 125.95-56.504 125.95-125.95v-173.18c0-69.449-56.504-125.95-125.95-125.95zm94.465 299.14c0 52.086-42.375 94.465-94.465 94.465h-173.18c-52.09 0-94.465-42.379-94.465-94.465v-173.18c0-52.086 42.375-94.465 94.465-94.465h173.18c52.09 0 94.465 42.379 94.465 94.465z"></path>
 </g>

      </g>
     <g id="IconSvg_iconCarrier">
      <g xmlns="http://www.w3.org/2000/svg">
  <path d="m507.91 386.85-160.08-105.51c-4.8359-3.1797-11.016-3.4688-16.129-0.71484-5.0977 2.7461-8.2812 8.0664-8.2812 13.859l0.003907 211.02c0 5.793 3.1836 11.117 8.2812 13.859 2.3359 1.2617 4.9062 1.8828 7.4648 1.8828 3.0273 0 6.043-0.87109 8.6641-2.5977l160.08-105.51c4.418-2.9141 7.0781-7.8516 7.0781-13.145s-2.6602-10.234-7.082-13.148zm-153 89.422v-152.55l115.73 76.277z"></path>
  <path d="m486.59 187.45h-173.18c-69.449 0-125.95 56.504-125.95 125.95v173.18c0 69.449 56.504 125.95 125.95 125.95h173.18c69.449 0 125.95-56.504 125.95-125.95v-173.18c0-69.449-56.504-125.95-125.95-125.95zm94.465 299.14c0 52.086-42.375 94.465-94.465 94.465h-173.18c-52.09 0-94.465-42.379-94.465-94.465v-173.18c0-52.086 42.375-94.465 94.465-94.465h173.18c52.09 0 94.465 42.379 94.465 94.465z"></path>
 </g>

      </g>
      </svg>