<svg id="svg" fill="#ffffff" stroke="#ffffff" width="101" height="101" version="1.1" viewBox="144 144 512 512" xmlns="http://www.w3.org/2000/svg">
    <g id="IconSvg_bgCarrier" stroke-width="0"></g>
    <g id="IconSvg_tracerCarrier" stroke-linecap="round" stroke-linejoin="round" stroke="#CCCCCC" stroke-width="0">
      <path xmlns="http://www.w3.org/2000/svg" d="m400 198.48c-63.934 0-115.88 51.941-115.88 115.88v45.344h-25.191c-19.277 0-35.266 15.992-35.266 35.266v171.3c0 19.277 15.992 35.266 35.266 35.266h282.13c19.277 0 35.266-15.992 35.266-35.266v-171.3c0-19.277-15.992-35.266-35.266-35.266h-25.191v-45.344c0-63.934-51.941-115.88-115.88-115.88zm0 30.23c47.711 0 85.648 37.938 85.648 85.648v45.344h-171.3v-45.344c0-47.711 37.938-85.648 85.648-85.648zm-141.07 161.22h282.13c3.0508 0 5.0391 1.9844 5.0391 5.0391v171.3c0 3.0508-1.9844 5.0391-5.0391 5.0391h-282.13c-3.0508 0-5.0391-1.9844-5.0391-5.0391v-171.3c0-3.0508 1.9844-5.0391 5.0391-5.0391zm141.07 25.191c-24.863 0-45.344 20.48-45.344 45.344 0 10.309 4.2188 19.27 10.078 26.922v23.457c0 19.277 15.992 35.266 35.266 35.266 19.277 0 35.266-15.992 35.266-35.266v-23.457c5.8594-7.6523 10.078-16.613 10.078-26.922 0-24.863-20.48-45.344-45.344-45.344zm0 30.23c8.5273 0 15.113 6.5859 15.113 15.113 0 4.5625-1.918 8.3828-5.0391 11.18-3.1758 2.8398-5.0586 7.0742-5.0391 11.336v27.867c0 3.0508-1.9844 5.0391-5.0391 5.0391-3.0508 0-5.0391-1.9844-5.0391-5.0391v-27.867c0-4.2617-1.8633-8.4961-5.0391-11.336-3.1211-2.793-5.0391-6.6172-5.0391-11.18 0-8.5273 6.5859-15.113 15.113-15.113z"></path>

      </g>
     <g id="IconSvg_iconCarrier">
      <path xmlns="http://www.w3.org/2000/svg" d="m400 198.48c-63.934 0-115.88 51.941-115.88 115.88v45.344h-25.191c-19.277 0-35.266 15.992-35.266 35.266v171.3c0 19.277 15.992 35.266 35.266 35.266h282.13c19.277 0 35.266-15.992 35.266-35.266v-171.3c0-19.277-15.992-35.266-35.266-35.266h-25.191v-45.344c0-63.934-51.941-115.88-115.88-115.88zm0 30.23c47.711 0 85.648 37.938 85.648 85.648v45.344h-171.3v-45.344c0-47.711 37.938-85.648 85.648-85.648zm-141.07 161.22h282.13c3.0508 0 5.0391 1.9844 5.0391 5.0391v171.3c0 3.0508-1.9844 5.0391-5.0391 5.0391h-282.13c-3.0508 0-5.0391-1.9844-5.0391-5.0391v-171.3c0-3.0508 1.9844-5.0391 5.0391-5.0391zm141.07 25.191c-24.863 0-45.344 20.48-45.344 45.344 0 10.309 4.2188 19.27 10.078 26.922v23.457c0 19.277 15.992 35.266 35.266 35.266 19.277 0 35.266-15.992 35.266-35.266v-23.457c5.8594-7.6523 10.078-16.613 10.078-26.922 0-24.863-20.48-45.344-45.344-45.344zm0 30.23c8.5273 0 15.113 6.5859 15.113 15.113 0 4.5625-1.918 8.3828-5.0391 11.18-3.1758 2.8398-5.0586 7.0742-5.0391 11.336v27.867c0 3.0508-1.9844 5.0391-5.0391 5.0391-3.0508 0-5.0391-1.9844-5.0391-5.0391v-27.867c0-4.2617-1.8633-8.4961-5.0391-11.336-3.1211-2.793-5.0391-6.6172-5.0391-11.18 0-8.5273 6.5859-15.113 15.113-15.113z"></path>

      </g>
      </svg>